PathFileType	4	(X/Y/Z)	1_Data\ik.trc
DataRate	CameraRate	NumFrames	NumMarkers	Units	OrigDataRate	OrigDataStartFrame	OrigNumFrames
120.000000	120.000000	4	54	mm	120.000000	49	131
Frame#	Time	Sternum			Neck			RShoulder			LShoulder			Xiphoid			Thoracic			RAsis			LAsis			RPsis			LPsis			Lumbar			RElbow			RWrist			RRadius			RUlna			LElbow			LWrist			LUlna			LRadius			LThighSuperior			LThighInferior			LThighLateral			LPatella			LShankSuperior			LShankInferior			LShankLateral			RThighSuperior			RThighInferior			RThighLateral			RPatella			RShankSuperior			RShankInferior			RShankLateral			RHeel			RToe			RMidfootMedial			RMidfootLateral			RHindfoot			RMidfootSuperior			RToeMedial			RToeLateral			LHeel			LToe			LMidfootMedial			LMidfootLateral			LHindfoot			LMidfootSuperior			LToeMedial			LToeLateral			Oglobal			Sacral			Xglobal			Yglobal			Zglobal			
		X1	Y1	Z1	X2	Y2	Z2	X3	Y3	Z3	X4	Y4	Z4	X5	Y5	Z5	X6	Y6	Z6	X7	Y7	Z7	X8	Y8	Z8	X9	Y9	Z9	X10	Y10	Z10	X11	Y11	Z11	X12	Y12	Z12	X13	Y13	Z13	X14	Y14	Z14	X15	Y15	Z15	X16	Y16	Z16	X17	Y17	Z17	X18	Y18	Z18	X19	Y19	Z19	X20	Y20	Z20	X21	Y21	Z21	X22	Y22	Z22	X23	Y23	Z23	X24	Y24	Z24	X25	Y25	Z25	X26	Y26	Z26	X27	Y27	Z27	X28	Y28	Z28	X29	Y29	Z29	X30	Y30	Z30	X31	Y31	Z31	X32	Y32	Z32	X33	Y33	Z33	X34	Y34	Z34	X35	Y35	Z35	X36	Y36	Z36	X37	Y37	Z37	X38	Y38	Z38	X39	Y39	Z39	X40	Y40	Z40	X41	Y41	Z41	X42	Y42	Z42	X43	Y43	Z43	X44	Y44	Z44	X45	Y45	Z45	X46	Y46	Z46	X47	Y47	Z47	X48	Y48	Z48	X49	Y49	Z49	X50	Y50	Z50	X51	Y51	Z51	X52	Y52	Z52	X53	Y53	Z53	X54	Y54	Z54	

50	0.4083333333333334	499.3781433105469	1450.270263671875	90.81764221191403	337.8973693847656	1552.415405273438	84.46633911132807	377.1848449707031	1539.5419921875	250.1115264892578	373.8670654296875	1537.715942382812	-52.59740066528325	530.0929565429688	1291.98388671875	102.4912033081055	253.6654052734375	1336.209838867188	96.11125183105463	434.7330017089843	1023.701049804688	243.1852874755859	452.5604248046875	1025.846313476562	-31.61003684997559	250.9590606689453	1057.189208984375	152.6441802978515	250.8610382080078	1049.556030273438	48.53049468994137	253.2552337646484	1122.91845703125	87.59106445312496	286.2923889160156	1219.628540039062	356.6030578613281	357.6688232421874	958.212158203125	395.4822387695312	376.0217285156249	948.3106079101562	346.8815307617188	313.6273193359374	949.11962890625	397.3382263183594	389.3523559570312	1197.990356445312	-172.0995178222657	573.38818359375	1002.28125	-202.6419525146484	534.6309204101562	978.6900634765625	-190.6634674072266	599.85888671875	1012.488037109375	-161.7872161865234	378.5332641601562	840.8568115234375	-102.9346466064453	374.2850036621094	617.0411376953125	-43.37758636474609	457.8382873535156	714.8887939453125	0.7397778034210328	439.5168151855469	525.9015502929688	29.4940872192383	347.3286437988281	378.0584106445312	-43.13998794555662	293.3749084472656	183.8645935058594	-6.691684722900367	354.6598205566406	271.6709899902344	28.24162673950198	424.2832031249999	838.8812866210938	298.135498046875	510.8033142089843	618.922119140625	282.2026672363281	538.7304077148438	787.6057739257812	228.3525848388672	608.7568969726562	559.5665893554688	235.568588256836	511.8294982910156	463.0626220703125	292.5979003906251	524.455322265625	209.1926879882813	258.9016113281251	575.1710815429688	338.970703125	220.0563354492188	453.1148376464844	83.06713867187501	198.5043029785157	764.7823486328125	95.92308044433595	231.236785888672	674.5618286132812	67.27758789062501	174.7152099609376	662.8282470703125	62.91811370849611	289.4728088378907	612.6583862304688	59.77640533447267	277.0320739746094	627.449951171875	123.6157608032227	222.5116271972657	716.8552856445312	75.14151763916017	180.6687164306641	711.4202880859375	75.3915252685547	284.007537841797	191.5883483886719	65.12625122070312	50.98336029052736	503.0611877441406	59.11033630371094	8.87741184234625	407.81982421875	36.33043289184571	71.80535888671881	397.3588256835938	32.4918212890625	-45.94670867919917	340.8999938964844	33.08374786376953	-32.99572753906246	379.3887023925781	96.08155822753906	23.08576011657719	450.0960693359375	36.98569107055665	63.20141601562506	441.8478088378906	42.1047477722168	-40.36113739013666	0	0	0	250.9100494384766	1053.37255859375	100.5873336791992	-200	0	-2.449293598294706e-14	-2.449293598294706e-14	1.224646799147353e-14	200	1.499759782661858e-30	200	-1.224646799147353e-14	
51	0.4166666666666667	507.9345397949219	1449.346801757812	91.20177459716794	346.5318603515625	1551.629272460938	84.64217376708979	385.6723327636718	1538.841064453125	250.3460693359375	382.5292358398438	1536.826538085938	-52.1981468200684	538.5033569335938	1291.005615234375	102.7807693481445	262.0494995117188	1335.509399414062	96.56405639648432	443.3947143554687	1022.587097167969	243.1808319091797	460.3465576171875	1025.202880859375	-31.56714630126954	259.3449401855469	1056.353393554688	153.3065490722656	258.8896484375	1048.858276367188	49.19570541381832	261.4739990234375	1122.17041015625	88.38526153564449	291.8878784179687	1219.721557617188	356.2365112304688	360.7951660156249	957.6471557617188	395.1441955566406	379.9495239257812	947.7000732421875	346.5440063476562	316.5188903808593	948.859375	396.6451721191406	399.55615234375	1197.527221679688	-172.4655151367188	586.0386962890625	1004.058410644531	-201.8193817138672	548.97216796875	978.0194702148438	-189.3578491210938	611.728515625	1014.185852050781	-160.7475433349609	385.4780578613281	840.1943359375	-103.9769821166992	378.6806335449219	616.609375	-43.34761810302733	463.1484680175781	713.6901245117188	0.6866633892059456	442.3208312988281	523.7268676757812	28.96689414978029	349.71142578125	377.7182006835938	-43.10093307495115	294.5356140136719	183.7856140136719	-6.405466079711889	356.2196350097656	271.2729797363281	28.40557670593264	433.7138671874999	837.929443359375	299.1644287109375	516.7745971679688	616.8287963867188	280.4875183105469	545.4325561523438	785.39990234375	226.9514007568359	615.1730346679688	559.2755737304688	233.8307495117188	521.6070556640625	460.6367492675781	291.2823791503907	546.794189453125	207.5801544189453	259.1998596191407	591.9125366210938	339.3040466308594	220.1868896484376	481.8528747558594	77.19353485107423	198.8970184326172	792.7112426757812	105.0030899047852	232.8127899169923	704.4423217773438	71.56369018554689	176.4058532714845	692.039306640625	66.78484344482423	290.2349548339844	641.8894653320312	62.25947952270509	278.6259460449219	654.1394653320312	125.4707641601563	223.7494049072266	746.0256958007812	81.55519866943361	182.2493896484376	740.3927001953125	81.92725372314455	285.5772399902345	191.6384429931641	65.32819366455078	51.05270385742189	503.237548828125	58.806640625	8.870954513549863	407.8099670410156	36.26603317260743	71.82862854003912	397.4406127929688	32.39843368530273	-46.01446914672847	342.4092102050781	31.31583023071289	-31.99714851379391	379.490478515625	95.86456298828125	22.99389457702641	450.1918640136719	36.83859252929688	63.17991256713873	442.0083923339844	41.92187881469727	-40.38954162597651	0	0	0	259.1172790527344	1052.605834960938	101.2511215209961	-200	0	-2.449293598294706e-14	-2.449293598294706e-14	1.224646799147353e-14	200	1.499759782661858e-30	200	-1.224646799147353e-14	
52	0.4250000000000001	516.5225830078125	1448.392944335938	91.62898254394528	355.1843872070312	1550.703979492188	84.85488891601557	394.2748107910156	1538.01611328125	250.6571502685547	391.189697265625	1535.80224609375	-51.75030899047856	547.0137329101562	1290.090942382812	103.354866027832	270.4449157714844	1334.645874023438	97.15480804443354	452.2663574218749	1021.595520019531	243.1804504394531	468.0198974609375	1024.55078125	-31.67682456970216	267.8041687011719	1055.345703125	154.1483459472656	266.8843994140625	1048.049194335938	49.93052291870114	269.6246032714844	1121.276000976562	89.27984619140621	297.7131042480468	1219.780883789062	356.0303344726562	364.1647033691406	957.0398559570312	394.9192810058594	383.5364685058593	947.101806640625	346.1801452636719	319.8528442382812	948.4451904296875	396.1032104492188	409.744140625	1196.889038085938	-172.7500610351563	598.78125	1005.640319824219	-200.7001495361328	561.94091796875	979.13037109375	-188.7323455810547	624.083984375	1016.395751953125	-159.1632232666015	392.4661254882812	839.5332641601562	-104.8885116577149	383.2022094726562	616.04150390625	-43.38007354736327	468.7548217773438	712.5526733398438	0.5105961561203141	447.0711059570312	523.4979248046875	29.66984558105471	352.4923706054688	377.5499877929688	-42.9902763366699	295.1452026367188	184.0293731689453	-6.409733295440649	357.9116821289062	270.7181701660156	28.51196098327639	442.8912353515624	836.7643432617188	300.1239013671875	522.0869140625	614.3594360351562	278.5970458984375	552.071044921875	782.8029174804688	225.8561553955078	621.7926635742188	558.6695556640625	232.1476593017579	531.2908935546875	458.1578369140625	289.6721496582032	568.2932739257812	206.4644012451172	259.2241821289063	608.2064208984375	339.9953002929688	220.4616088867188	510.1161499023438	72.59865570068361	199.2229309082032	819.109130859375	114.5905227661133	234.4629974365236	732.6088256835938	77.16536712646486	177.7001342773438	719.9929809570312	70.93395996093751	291.0237426757814	670.6011352539062	64.46548461914064	279.2995910644532	679.706298828125	128.2547912597656	225.3340759277345	773.691162109375	89.18038940429689	183.6935424804688	767.9359741210938	88.63833618164064	287.0139160156251	191.7894744873047	65.47174835205078	51.05928802490236	503.3497314453125	58.46171188354492	8.696084022522031	408.03515625	36.26426696777344	71.59279632568365	397.5682373046875	32.24058151245117	-46.00537109374995	343.2319946289062	30.11980056762695	-31.26795387268062	379.6180419921875	95.70144653320312	23.01199340820316	450.2603759765625	36.69116592407227	63.04187774658209	442.0762023925781	41.64828491210938	-40.53363800048822	0	0	0	267.3442687988281	1051.697387695312	102.039436340332	-200	0	-2.449293598294706e-14	-2.449293598294706e-14	1.224646799147353e-14	200	1.499759782661858e-30	200	-1.224646799147353e-14	
53	0.4333333333333334	525.043212890625	1447.286743164062	92.06929779052733	363.8363037109375	1549.69580078125	85.20186614990229	402.8392639160156	1537.075805664062	251.1752777099609	399.7464904785156	1534.88818359375	-51.24339675903325	555.5601806640625	1289.025512695312	103.6544799804687	278.8709411621094	1333.6435546875	97.87655639648432	461.3411254882812	1020.507141113281	243.2100524902344	475.8158874511719	1023.788330078125	-31.75642013549805	276.4349670410156	1054.179321289062	155.0724945068359	275.0336303710938	1047.094116210938	50.77330780029294	277.9140014648438	1120.229736328125	90.25369262695308	303.5520324707031	1219.724853515625	355.8733215332031	367.7858886718749	956.2915649414062	394.5858764648438	387.1981506347656	946.3381958007812	346.0552062988281	323.4409484863281	948.1134033203125	395.4798583984375	419.7698974609375	1196.384765625	-173.0051879882813	611.165771484375	1007.193115234375	-199.8553161621093	574.3796997070312	980.4124755859375	-188.4058685302734	635.9354248046875	1018.186950683594	-157.5799407958984	399.5007019042969	838.8761596679688	-105.6511688232422	387.9814147949219	615.3619384765625	-43.25517654418944	474.6330261230469	711.3482666015625	0.6148873567581323	451.2901611328125	522.4771728515625	29.08383941650393	355.1141357421875	377.8507690429688	-43.01827239990232	296.4900817871094	183.9220123291016	-6.152579307556127	359.765625	270.4241333007812	28.70570373535159	451.7013854980468	835.3909301757812	300.9286193847656	526.9891357421875	611.6618041992188	276.4083251953125	558.5509033203125	779.823974609375	224.9855041503906	628.579345703125	558.5371704101562	230.884506225586	540.9984741210938	455.9136047363281	287.9674987792969	588.9100341796875	206.0572357177735	259.3720703125001	623.628173828125	340.9902954101562	220.2307128906251	536.9703979492188	69.07094573974611	199.9644317626954	843.7857055664062	124.2927474975586	236.1532745361329	759.2791137695312	83.42987060546876	178.755844116211	746.8455810546875	77.28268432617189	292.9148559570314	697.57080078125	67.46260833740236	280.165985107422	704.0341186523438	132.4789276123047	225.8725891113282	799.81201171875	97.05276489257814	185.0621643066407	793.2399291992188	96.43284606933595	288.3333740234376	191.5048980712891	66.34386444091797	52.21765136718751	503.6366577148438	58.033935546875	8.752949714660703	407.9663391113281	36.4271583557129	71.55068969726568	397.597900390625	32.15161514282227	-46.0958976745605	343.1431579589844	30.24153137207031	-31.21897697448727	379.7442016601562	95.57738494873047	23.00718879699711	450.3170166015625	36.64967346191407	63.02661895751959	442.3927612304688	41.41116714477539	-40.57828140258783	0	0	0	275.7343139648438	1050.63671875	102.9229049682617	-200	0	-2.449293598294706e-14	-2.449293598294706e-14	1.224646799147353e-14	200	1.499759782661858e-30	200	-1.224646799147353e-14	
